<?xml version="1.0" standalone="no"?>
<!DOCTYPE svg PUBLIC "-//W3C//DTD SVG 20010904//EN"
 "http://www.w3.org/TR/2001/REC-SVG-20010904/DTD/svg10.dtd">
<svg version="1.0" xmlns="http://www.w3.org/2000/svg"
 width="500.000000pt" height="500.000000pt" viewBox="0 0 500.000000 500.000000"
 preserveAspectRatio="xMidYMid meet">

<g transform="translate(0.000000,500.000000) scale(0.100000,-0.100000)"
fill="#000000" stroke="none">
<path d="M3196 4810 c-3 -8 -10 -44 -16 -79 -16 -91 -46 -165 -101 -252 -67
-105 -200 -229 -261 -244 -43 -11 -36 15 22 81 28 31 50 61 50 65 0 16 -78 71
-155 108 -94 46 -153 60 -166 40 -5 -8 -9 -135 -9 -283 l0 -268 23 5 c54 14
157 30 161 26 3 -2 6 -68 8 -146 3 -162 6 -156 -104 -236 -32 -23 -60 -49 -63
-58 -3 -10 4 -75 16 -145 31 -188 101 -375 152 -409 13 -8 50 -20 82 -26 221
-41 461 -213 650 -467 57 -77 91 -115 94 -105 10 50 -26 187 -99 376 -13 31
-21 60 -18 63 3 3 32 -3 64 -12 79 -24 255 -24 342 0 80 22 172 65 172 81 0 8
-24 14 -69 18 -219 18 -491 151 -654 320 -110 113 -169 196 -232 322 -84 170
-163 431 -138 456 6 6 37 13 69 16 l59 5 54 -108 c134 -265 349 -389 613 -355
81 11 184 43 205 63 10 11 -16 13 -130 13 -131 1 -147 3 -206 28 -117 49 -217
124 -271 201 -15 23 -51 84 -80 136 -57 104 -99 155 -136 164 -32 9 -30 21 14
86 82 118 110 247 92 414 -11 93 -24 134 -34 106z"/>
<path d="M1806 4801 c-4 -6 -11 -50 -17 -98 -20 -175 12 -326 91 -431 l40 -52
-37 -15 c-47 -20 -53 -28 -126 -175 -52 -107 -72 -136 -137 -201 -121 -122
-238 -164 -437 -157 -134 5 -137 -7 -9 -48 111 -35 269 -37 366 -4 165 55 281
168 360 350 45 105 45 105 119 85 72 -21 71 -15 36 -170 -63 -279 -133 -416
-306 -599 -181 -191 -445 -324 -681 -343 -88 -7 -98 -18 -40 -50 120 -67 316
-90 466 -54 49 12 91 19 93 17 3 -2 -16 -55 -41 -118 -70 -174 -108 -347 -74
-336 7 3 44 49 83 104 77 109 218 255 323 333 91 69 213 128 303 147 109 22
109 22 130 71 51 120 115 358 126 468 l5 60 -69 48 c-112 76 -107 66 -111 238
-2 82 -1 149 1 149 3 0 43 -9 89 -20 46 -11 86 -20 91 -20 4 0 6 125 5 278 -3
276 -3 277 -25 280 -53 8 -293 -120 -293 -155 0 -9 20 -40 45 -69 79 -92 48
-115 -53 -39 -153 115 -260 287 -292 469 -11 64 -15 73 -24 57z"/>
<path d="M2455 2945 c-63 -58 -159 -113 -285 -163 -192 -76 -300 -142 -300
-183 0 -9 30 -65 66 -125 36 -60 79 -134 94 -164 42 -82 55 -97 72 -82 8 6 57
95 109 196 l94 185 55 24 c30 13 77 41 103 61 l48 37 60 -40 c32 -22 76 -45
96 -51 80 -26 73 62 73 -923 l0 -881 -52 -80 c-94 -147 -88 -153 -88 99 -1
618 -10 1532 -16 1623 -3 56 -9 104 -14 107 -12 8 -70 -86 -265 -432 -103
-183 -190 -333 -194 -333 -12 0 -186 319 -276 508 -30 61 -60 112 -67 112 -12
-1 -120 -171 -167 -264 -17 -32 -18 -43 -8 -60 8 -15 11 -131 8 -436 -1 -228
0 -427 4 -443 5 -19 35 -48 104 -99 237 -177 590 -585 703 -813 19 -38 50
-105 68 -147 19 -43 36 -78 39 -78 3 0 19 31 35 70 128 313 491 765 802 1001
55 41 105 87 112 103 23 47 27 211 8 298 -18 80 -65 170 -119 226 l-32 33 23
37 c12 20 37 66 54 102 30 60 32 73 32 165 0 169 -56 297 -183 426 -93 93
-157 131 -353 209 -176 70 -237 104 -320 178 -32 28 -60 52 -61 52 -2 0 -30
-25 -62 -55z m656 -537 c32 -30 62 -73 81 -115 27 -58 32 -79 32 -148 0 -67
-4 -88 -26 -131 -15 -28 -41 -63 -58 -78 -28 -23 -40 -26 -111 -26 l-79 0 0
293 c0 162 3 297 6 300 11 11 103 -45 155 -95z m-1222 -588 c21 -36 58 -103
82 -150 l44 -85 4 -213 c1 -118 -1 -218 -5 -222 -5 -5 -53 33 -107 84 l-98 93
1 291 c1 159 5 293 8 297 8 8 23 -12 71 -95z m506 -411 c3 -272 8 -547 10
-611 3 -65 2 -118 -2 -118 -5 0 -32 35 -61 78 -29 42 -67 94 -85 115 l-32 39
-3 346 -3 347 46 95 c51 103 115 213 121 207 2 -2 6 -226 9 -498z m750 291
c95 -41 152 -136 142 -238 -7 -79 -25 -111 -99 -174 -35 -29 -100 -89 -145
-134 -49 -47 -83 -74 -83 -65 -11 396 -11 613 1 627 11 13 25 15 77 9 36 -4
84 -15 107 -25z"/>
</g>
</svg>
