<?xml version="1.0" encoding="UTF-8" standalone="no"?>
<!DOCTYPE svg PUBLIC "-//W3C//DTD SVG 1.1//EN" "http://www.w3.org/Graphics/SVG/1.1/DTD/svg11.dtd">
<svg width="100%" height="100%" viewBox="0 0 500 500" version="1.1" xmlns="http://www.w3.org/2000/svg" xmlns:xlink="http://www.w3.org/1999/xlink" xml:space="preserve" xmlns:serif="http://www.serif.com/" style="fill-rule:evenodd;clip-rule:evenodd;stroke-linejoin:round;stroke-miterlimit:2;">
    <g transform="matrix(0.105453,0,0,-0.105453,-16.3532,509.33)">
        <path d="M3196,4810C3193,4802 3186,4766 3180,4731C3164,4640 3134,4566 3079,4479C3012,4374 2879,4250 2818,4235C2775,4224 2782,4250 2840,4316C2868,4347 2890,4377 2890,4381C2890,4397 2812,4452 2735,4489C2641,4535 2582,4549 2569,4529C2564,4521 2560,4394 2560,4246L2560,3978L2583,3983C2637,3997 2740,4013 2744,4009C2747,4007 2750,3941 2752,3863C2755,3701 2758,3707 2648,3627C2616,3604 2588,3578 2585,3569C2582,3559 2589,3494 2601,3424C2632,3236 2702,3049 2753,3015C2766,3007 2803,2995 2835,2989C3056,2948 3296,2776 3485,2522C3542,2445 3576,2407 3579,2417C3589,2467 3553,2604 3480,2793C3467,2824 3459,2853 3462,2856C3465,2859 3494,2853 3526,2844C3605,2820 3781,2820 3868,2844C3948,2866 4040,2909 4040,2925C4040,2933 4016,2939 3971,2943C3752,2961 3480,3094 3317,3263C3207,3376 3148,3459 3085,3585C3001,3755 2922,4016 2947,4041C2953,4047 2984,4054 3016,4057L3075,4062L3129,3954C3263,3689 3478,3565 3742,3599C3823,3610 3926,3642 3947,3662C3957,3673 3931,3675 3817,3675C3686,3676 3670,3678 3611,3703C3494,3752 3394,3827 3340,3904C3325,3927 3289,3988 3260,4040C3203,4144 3161,4195 3124,4204C3092,4213 3094,4225 3138,4290C3220,4408 3248,4537 3230,4704C3219,4797 3206,4838 3196,4810Z" style="fill:white;fill-rule:nonzero;"/>
        <path d="M1806,4801C1802,4795 1795,4751 1789,4703C1769,4528 1801,4377 1880,4272L1920,4220L1883,4205C1836,4185 1830,4177 1757,4030C1705,3923 1685,3894 1620,3829C1499,3707 1382,3665 1183,3672C1049,3677 1046,3665 1174,3624C1285,3589 1443,3587 1540,3620C1705,3675 1821,3788 1900,3970C1945,4075 1945,4075 2019,4055C2091,4034 2090,4040 2055,3885C1992,3606 1922,3469 1749,3286C1568,3095 1304,2962 1068,2943C980,2936 970,2925 1028,2893C1148,2826 1344,2803 1494,2839C1543,2851 1585,2858 1587,2856C1590,2854 1571,2801 1546,2738C1476,2564 1438,2391 1472,2402C1479,2405 1516,2451 1555,2506C1632,2615 1773,2761 1878,2839C1969,2908 2091,2967 2181,2986C2290,3008 2290,3008 2311,3057C2362,3177 2426,3415 2437,3525L2442,3585L2373,3633C2261,3709 2266,3699 2262,3871C2260,3953 2261,4020 2263,4020C2266,4020 2306,4011 2352,4000C2398,3989 2438,3980 2443,3980C2447,3980 2449,4105 2448,4258C2445,4534 2445,4535 2423,4538C2370,4546 2130,4418 2130,4383C2130,4374 2150,4343 2175,4314C2254,4222 2223,4199 2122,4275C1969,4390 1862,4562 1830,4744C1819,4808 1815,4817 1806,4801Z" style="fill:white;fill-rule:nonzero;"/>
        <path d="M2455,2945C2392,2887 2296,2832 2170,2782C1978,2706 1870,2640 1870,2599C1870,2590 1900,2534 1936,2474C1972,2414 2015,2340 2030,2310C2072,2228 2085,2213 2102,2228C2110,2234 2159,2323 2211,2424L2305,2609L2360,2633C2390,2646 2437,2674 2463,2694L2511,2731L2571,2691C2603,2669 2647,2646 2667,2640C2747,2614 2740,2702 2740,1717L2740,836L2688,756C2594,609 2600,603 2600,855C2599,1473 2590,2387 2584,2478C2581,2534 2575,2582 2570,2585C2558,2593 2500,2499 2305,2153C2202,1970 2115,1820 2111,1820C2099,1820 1925,2139 1835,2328C1805,2389 1775,2440 1768,2440C1756,2439 1648,2269 1601,2176C1584,2144 1583,2133 1593,2116C1601,2101 1604,1985 1601,1680C1600,1452 1601,1253 1605,1237C1610,1218 1640,1189 1709,1138C1946,961 2299,553 2412,325C2431,287 2462,220 2480,178C2499,135 2516,100 2519,100C2522,100 2538,131 2554,170C2682,483 3045,935 3356,1171C3411,1212 3461,1258 3468,1274C3491,1321 3495,1485 3476,1572C3458,1652 3411,1742 3357,1798L3325,1831L3348,1868C3360,1888 3385,1934 3402,1970C3432,2030 3434,2043 3434,2135C3434,2304 3378,2432 3251,2561C3158,2654 3094,2692 2898,2770C2722,2840 2661,2874 2578,2948C2546,2976 2518,3000 2517,3000C2515,3000 2487,2975 2455,2945ZM3111,2408C3143,2378 3173,2335 3192,2293C3219,2235 3224,2214 3224,2145C3224,2078 3220,2057 3198,2014C3183,1986 3157,1951 3140,1936C3112,1913 3100,1910 3029,1910L2950,1910L2950,2203C2950,2365 2953,2500 2956,2503C2967,2514 3059,2458 3111,2408ZM1889,1820C1910,1784 1947,1717 1971,1670L2015,1585L2019,1372C2020,1254 2018,1154 2014,1150C2009,1145 1961,1183 1907,1234L1809,1327L1810,1618C1811,1777 1815,1911 1818,1915C1826,1923 1841,1903 1889,1820ZM2395,1409C2398,1137 2403,862 2405,798C2408,733 2407,680 2403,680C2398,680 2371,715 2342,758C2313,800 2275,852 2257,873L2225,912L2222,1258L2219,1605L2265,1700C2316,1803 2380,1913 2386,1907C2388,1905 2392,1681 2395,1409ZM3145,1700C3240,1659 3297,1564 3287,1462C3280,1383 3262,1351 3188,1288C3153,1259 3088,1199 3043,1154C2994,1107 2960,1080 2960,1089C2949,1485 2949,1702 2961,1716C2972,1729 2986,1731 3038,1725C3074,1721 3122,1710 3145,1700Z" style="fill:white;fill-rule:nonzero;"/>
    </g>
</svg>
