<?xml version="1.0" encoding="UTF-8" standalone="no"?>
<!DOCTYPE svg PUBLIC "-//W3C//DTD SVG 1.1//EN" "http://www.w3.org/Graphics/SVG/1.1/DTD/svg11.dtd">
<svg width="100%" height="100%" viewBox="0 0 160 193" version="1.1" xmlns="http://www.w3.org/2000/svg" xmlns:xlink="http://www.w3.org/1999/xlink" xml:space="preserve" xmlns:serif="http://www.serif.com/" style="fill-rule:evenodd;clip-rule:evenodd;stroke-linejoin:round;stroke-miterlimit:2;">
    <g transform="matrix(1,0,0,1,0,-0.384003)">
        <g>
            <path d="M79.479,193C79.479,193 0,154.01 0,81.221L0,0.384L159.255,0.384L159.255,81.221C159.255,154.01 79.479,193 79.479,193Z" style="fill:rgb(0,160,228);"/>
            <path d="M122.021,61.202L115.388,61.202L115.388,111.055L101.038,111.055L101.036,61.202L94.422,61.202L94.422,51.207L122.021,51.207L122.021,61.202Z" style="fill:white;fill-rule:nonzero;"/>
            <path d="M57.956,111.022L43.611,111.022L43.628,51.207L57.937,51.207L57.956,111.022Z" style="fill:white;fill-rule:nonzero;"/>
            <path d="M93.813,17.313C81.943,17.313 72.323,23.465 72.323,35.335L72.319,126.956C72.319,137.011 72.319,141.997 65.176,141.997C58.536,141.997 57.952,137.032 57.952,129.705L57.95,129.705C57.95,125.75 54.739,122.541 50.781,122.541C46.828,122.541 43.618,125.75 43.618,129.705L43.605,129.705C43.605,139.792 53.31,144.981 65.176,144.981C77.044,144.981 86.666,138.826 86.666,126.956L86.672,35.335C86.672,25.281 86.67,20.296 93.813,20.296C100.456,20.296 101.038,25.266 101.038,32.584L101.046,32.584C101.046,36.543 104.253,39.748 108.206,39.748C112.166,39.748 115.372,36.543 115.372,32.584L115.387,32.584C115.387,22.497 105.682,17.313 93.813,17.313Z" style="fill:white;fill-rule:nonzero;"/>
        </g>
    </g>
</svg>
